<svg width="12" height="12" viewBox="0 0 12 12" fill="none" xmlns="http://www.w3.org/2000/svg">
<path d="M11.7285 0H0.271493C0.121548 0 0 0.121575 0 0.271493V11.7285C0 11.8784 0.121548 12 0.271493 12H11.7285C11.8785 12 12 11.8784 12 11.7285V0.271493C12 0.121575 11.8785 0 11.7285 0ZM11.457 11.457H0.542986V0.542986H11.457V11.457Z" fill="#040EFF"/>
<path d="M4.79735 5.73677L5.57346 4.23835L5.57346 9.53217C5.57346 9.79055 5.76445 10 5.99996 10C6.23548 10 6.42646 9.79055 6.42646 9.53217L6.42646 4.23835L7.20257 5.73677C7.31892 5.96143 7.57926 6.04007 7.78406 5.91244C7.92238 5.82627 8 5.66805 8 5.50524C8 5.42693 7.98204 5.34754 7.94421 5.27455L6.37503 2.24496C6.37499 2.24486 6.37494 2.24472 6.37486 2.24463L6.37076 2.23672C6.3697 2.23462 6.36829 2.23284 6.36718 2.23078C6.35993 2.21731 6.35208 2.2043 6.34368 2.19172C6.34095 2.18755 6.33818 2.18344 6.33532 2.17942C6.32572 2.16604 6.31562 2.15308 6.30478 2.14091C6.3038 2.13984 6.30295 2.13857 6.30197 2.1375C6.29024 2.12458 6.27766 2.1127 6.26465 2.10138C6.26102 2.0982 6.25727 2.0953 6.25356 2.09226C6.24311 2.08374 6.23232 2.07579 6.22115 2.06835C6.21765 2.06601 6.21419 2.06358 6.21065 2.06133C6.18131 2.04299 6.14988 2.02849 6.11674 2.01815C6.11269 2.01689 6.10863 2.01586 6.10458 2.01474C6.09179 2.01118 6.07874 2.00828 6.06547 2.00608C6.06095 2.00533 6.05647 2.00444 6.05191 2.00379C6.03489 2.0015 6.01762 2 6.00001 2C5.98239 2 5.96516 2.00154 5.9481 2.00379C5.94354 2.0044 5.93906 2.00529 5.93454 2.00608C5.92127 2.00833 5.90826 2.01123 5.89543 2.01474C5.89137 2.01586 5.88732 2.01689 5.88327 2.01815C5.85013 2.02849 5.8187 2.04299 5.78936 2.06133C5.78582 2.06358 5.78236 2.06601 5.77886 2.06835C5.76769 2.07579 5.7569 2.08374 5.74645 2.09226C5.74274 2.0953 5.73899 2.0982 5.73536 2.10138C5.72231 2.1127 5.70973 2.12463 5.69804 2.1375C5.69706 2.13857 5.69621 2.13984 5.69523 2.14091C5.68439 2.15308 5.67429 2.16599 5.66469 2.17942C5.66183 2.18344 5.65906 2.18755 5.65633 2.19172C5.64793 2.2043 5.64008 2.21731 5.63283 2.23078C5.63172 2.23284 5.63031 2.23467 5.62925 2.23672L5.62515 2.24463C5.62511 2.24472 5.62502 2.24486 5.62498 2.24496L4.0558 5.27456C3.93932 5.4993 4.01114 5.78482 4.21595 5.91244C4.42075 6.04007 4.68101 5.96143 4.79735 5.73677Z" fill="#040EFF"/>
</svg>
